<?xml version="1.0" encoding="utf-8"?>
<svg viewBox="16.449 141.794 527 94.3" width="527" height="94.3" xmlns="http://www.w3.org/2000/svg">
  <defs>
    <style type="text/css">
	.st0{clip-path:url(#SVGID_2_);}
</style>
  </defs>
  <g transform="matrix(1, 0, 0, 1, -27.551148, -231.005909)">
    <defs>
      <rect id="SVGID_1_" x="44" y="372.9" width="527" height="94.4"/>
    </defs>
    <clipPath id="SVGID_2_">
      <rect x="44" y="372.9" width="527" height="94.4" transform="matrix(1, 0, 0, 1, 0, 0)" style="overflow: visible;"/>
    </clipPath>
    <path class="st0" d="M571,375.8h-54.3v15.8c2.1-0.2,4-0.2,5.5-0.2h12.3v69.4c0,1.1-0.1,2.3-0.2,3.4h18.9c-0.2-1.2-0.2-2.4-0.2-3.4 v-69.4h12c1.9,0,3.9,0.1,6,0.2V375.8z M484.3,412.6c-2,1.6-5.5,2.5-10.7,2.7v-24.3c4.7,0.1,8.1,1,10.2,2.7c2.3,1.8,3.4,4.9,3.4,9.2 C487.2,407.7,486.3,410.9,484.3,412.6 M492.9,427.3c9.1-4.8,13.6-12.7,13.6-24c0-8.7-2.4-15.5-7.1-20.4c-4.8-4.8-11.5-7.2-20.3-7.2 h-23.8c0.2,1.3,0.2,2.5,0.2,3.7v81.5c0,1.2-0.1,2.4-0.2,3.6h18.4c-0.1-1.1-0.1-2.2-0.1-3.4v-39.6l15.2,38.9c0.5,1.3,0.8,2.6,1,3.9 h20L492.9,427.3z M447.4,449.3c-2.3,0.2-4.2,0.2-5.7,0.2h-26.9v-23.6h29.2v-15.4h-29.2v-20.8h27.3c1.6,0,3.2,0.1,5,0.4v-15.1h-49.9 c0.1,1.1,0.1,2.3,0.1,3.4v82.2c0,1.1-0.1,2.3-0.2,3.7h50.2V449.3z M372.2,376.1c-0.1,1.1-0.3,2.4-0.6,4.1l-10.7,51l-10.6-51 c-0.3-1.7-0.5-3.1-0.6-4.1h-19l22.2,88.5h15.8l22.4-88.5H372.2z M306.1,442.2c-0.7,6.1-2.9,9.2-6.5,9.2c-3.6,0-5.8-3.1-6.5-9.2 c-0.3-2.8-0.5-10.1-0.5-22c0-12,0.2-19.5,0.5-22.4c0.7-6.3,2.9-9.5,6.5-9.5c3.6,0,5.8,3.2,6.5,9.5c0.3,2.9,0.5,10.3,0.5,22.4 C306.5,432,306.4,439.4,306.1,442.2 M322,389.3c-3.8-11-11.3-16.5-22.5-16.5c-11.2,0-18.7,5.5-22.5,16.5 c-2.3,6.5-3.4,16.8-3.4,30.8c0,14.2,1.1,24.4,3.3,30.7c3.8,10.9,11.3,16.3,22.6,16.3c11.3,0,18.8-5.4,22.6-16.3 c2.2-6.3,3.3-16.5,3.3-30.7C325.5,406.1,324.3,395.8,322,389.3 M237.7,412.6c-2,1.6-5.5,2.5-10.7,2.7v-24.3c4.7,0.1,8.1,1,10.2,2.7 c2.3,1.8,3.4,4.9,3.4,9.2C240.7,407.7,239.7,410.9,237.7,412.6 M246.3,427.3c9.1-4.8,13.6-12.7,13.6-24c0-8.7-2.4-15.5-7.1-20.4 c-4.8-4.8-11.5-7.2-20.3-7.2h-23.8c0.2,1.3,0.2,2.5,0.2,3.7v81.5c0,1.2-0.1,2.4-0.2,3.6h18.4c-0.1-1.1-0.1-2.2-0.1-3.4v-39.6 l15.2,38.9c0.5,1.3,0.8,2.6,1,3.9h20L246.3,427.3z M197.4,375.8h-54.3v15.8c2.1-0.2,4-0.2,5.5-0.2h12.3v69.4c0,1.1-0.1,2.3-0.2,3.4 h18.9c-0.2-1.2-0.2-2.4-0.2-3.4v-69.4h12c1.9,0,3.9,0.1,6,0.2V375.8z M112,376.1c0.2,1.2,0.2,2.4,0.2,3.4v41.8l-17.2-45.2H78.6v85 c0,1.1-0.1,2.3-0.2,3.4h16.8c-0.1-1.1-0.1-2.2-0.1-3.4v-41.8l18.1,45.2h15.6v-84.8c0-1.2,0.1-2.5,0.2-3.7H112z M62.7,461.1v-81.6 c0-1.2,0.1-2.4,0.2-3.4H44c0.2,1.1,0.2,2.2,0.2,3.4v81.6c0,1.1-0.1,2.3-0.2,3.3h18.9C62.8,463.2,62.7,462.1,62.7,461.1"/>
  </g>
</svg>