<svg width="17" height="17" viewBox="0 0 17 17" fill="none" xmlns="http://www.w3.org/2000/svg">
<path d="M6.47138 1.91351e-08C7.70936 -2.66139e-05 8.92137 0.354894 9.9636 1.02265C11.0058 1.69041 11.8346 2.64298 12.3514 3.76734C12.8683 4.8917 13.0516 6.14066 12.8797 7.36603C12.7077 8.5914 12.1877 9.74175 11.3813 10.6806L17 16.2965L16.2962 17L10.6765 11.3831C9.8839 12.0605 8.93927 12.5365 7.92302 12.7704C6.90678 13.0043 5.84903 12.9892 4.83985 12.7265C3.83068 12.4638 2.89999 11.9612 2.12704 11.2615C1.35409 10.5618 0.761785 9.68569 0.400572 8.70789C0.0393578 7.73009 -0.0800638 6.67952 0.0524777 5.64565C0.185019 4.61177 0.565597 3.62524 1.1618 2.77005C1.758 1.91487 2.55216 1.21638 3.47664 0.734069C4.40112 0.251759 5.42854 -8.01513e-05 6.47138 1.91351e-08ZM6.47138 0.995025C5.01922 0.995025 3.62654 1.5716 2.59972 2.59792C1.57289 3.62424 0.996019 5.01623 0.996019 6.46766C0.996019 7.9191 1.57289 9.31108 2.59972 10.3374C3.62654 11.3637 5.01922 11.9403 6.47138 11.9403C7.92353 11.9403 9.31622 11.3637 10.343 10.3374C11.3699 9.31108 11.9467 7.9191 11.9467 6.46766C11.9467 5.01623 11.3699 3.62424 10.343 2.59792C9.31622 1.5716 7.92353 0.995025 6.47138 0.995025Z" fill="black" fill-opacity="0.5"/>
</svg>
