<svg width="17" height="18" viewBox="0 0 17 20" fill="none" xmlns="http://www.w3.org/2000/svg">
<path d="M8.5 11.485C13.1943 11.485 17 13.4846 17 15.9513V19.1416H0V15.9513C0 13.4846 3.80573 11.485 8.5 11.485ZM15.8667 15.9513C15.8667 14.1903 12.5687 12.7611 8.5 12.7611C4.43133 12.7611 1.13333 14.1903 1.13333 15.9513V17.8655H15.8667V15.9513ZM8.5 0C9.55203 0 10.561 0.470563 11.3049 1.30817C12.0488 2.14578 12.4667 3.28182 12.4667 4.46637C12.4667 5.65093 12.0488 6.78697 11.3049 7.62458C10.561 8.46218 9.55203 8.93275 8.5 8.93275C7.44797 8.93275 6.43904 8.46218 5.69514 7.62458C4.95125 6.78697 4.53333 5.65093 4.53333 4.46637C4.53333 3.28182 4.95125 2.14578 5.69514 1.30817C6.43904 0.470563 7.44797 0 8.5 0ZM8.5 1.27611C7.74855 1.27611 7.02788 1.61222 6.49653 2.21051C5.96518 2.80881 5.66667 3.62026 5.66667 4.46637C5.66667 5.31248 5.96518 6.12394 6.49653 6.72223C7.02788 7.32052 7.74855 7.65664 8.5 7.65664C9.25145 7.65664 9.97212 7.32052 10.5035 6.72223C11.0348 6.12394 11.3333 5.31248 11.3333 4.46637C11.3333 3.62026 11.0348 2.80881 10.5035 2.21051C9.97212 1.61222 9.25145 1.27611 8.5 1.27611V1.27611Z" fill="black" fill-opacity="0.5"/>
</svg>
