<svg width="26" height="27" viewBox="0 0 26 27" fill="none" xmlns="http://www.w3.org/2000/svg">
<ellipse cx="12.9262" cy="13.21" rx="12.9262" ry="13.21" fill="#F2F2F2"/>
<path d="M17.6302 8.78024C17.5445 8.73489 17.4611 8.68518 17.3803 8.63129C17.1453 8.47217 16.9299 8.28468 16.7386 8.07285C16.2601 7.51199 16.0813 6.94299 16.0155 6.54462H16.0181C15.9631 6.21395 15.9859 6 15.9893 6H13.8096V14.6332C13.8096 14.7491 13.8096 14.8637 13.8049 14.9769C13.8049 14.9909 13.8035 15.0039 13.8027 15.0191C13.8027 15.0253 13.8027 15.0318 13.8014 15.0383V15.0432C13.7785 15.353 13.6815 15.6522 13.5191 15.9146C13.3568 16.177 13.1339 16.3944 12.8702 16.5479C12.5954 16.708 12.2846 16.792 11.9684 16.7916C10.9528 16.7916 10.1297 15.9434 10.1297 14.8959C10.1297 13.8484 10.9528 13.0002 11.9684 13.0002C12.1606 13 12.3517 13.031 12.5344 13.092L12.5371 10.8187C11.9822 10.7453 11.4185 10.7905 10.8815 10.9514C10.3445 11.1123 9.84595 11.3854 9.4172 11.7536C9.04151 12.0879 8.72566 12.4869 8.48388 12.9324C8.39187 13.0949 8.04471 13.7479 8.00267 14.8076C7.97623 15.4091 8.15259 16.0322 8.23666 16.2898V16.2952C8.28954 16.4469 8.49445 16.9644 8.82839 17.4007C9.09766 17.7507 9.41579 18.0581 9.77255 18.3131V18.3077L9.77783 18.3131C10.833 19.0476 12.003 18.9994 12.003 18.9994C12.2055 18.991 12.884 18.9994 13.6544 18.6253C14.509 18.2107 14.9954 17.593 14.9954 17.593C15.3062 17.2239 15.5534 16.8032 15.7262 16.3491C15.9235 15.818 15.9893 15.1811 15.9893 14.9265V10.3464C16.0158 10.3626 16.3679 10.6012 16.3679 10.6012C16.3679 10.6012 16.8753 10.9343 17.6669 11.1513C18.2348 11.3056 19 11.3381 19 11.3381V9.12174C18.7319 9.15153 18.1875 9.06487 17.6302 8.78024V8.78024Z" fill="black"/>
</svg>
