<svg width="18" height="18" viewBox="0 0 20 22" fill="none" xmlns="http://www.w3.org/2000/svg">
<path d="M15.7896 16.8896C16.348 16.8896 16.8835 17.1269 17.2783 17.5492C17.6731 17.9716 17.8949 18.5443 17.8949 19.1416C17.8949 19.7389 17.6731 20.3116 17.2783 20.734C16.8835 21.1563 16.348 21.3936 15.7896 21.3936C15.2313 21.3936 14.6958 21.1563 14.301 20.734C13.9062 20.3116 13.6843 19.7389 13.6843 19.1416C13.6843 18.5443 13.9062 17.9716 14.301 17.5492C14.6958 17.1269 15.2313 16.8896 15.7896 16.8896ZM15.7896 18.0156C15.5105 18.0156 15.2427 18.1343 15.0453 18.3454C14.8479 18.5566 14.737 18.843 14.737 19.1416C14.737 19.4402 14.8479 19.7266 15.0453 19.9378C15.2427 20.1489 15.5105 20.2676 15.7896 20.2676C16.0688 20.2676 16.3366 20.1489 16.534 19.9378C16.7314 19.7266 16.8423 19.4402 16.8423 19.1416C16.8423 18.843 16.7314 18.5566 16.534 18.3454C16.3366 18.1343 16.0688 18.0156 15.7896 18.0156ZM6.31585 16.8896C6.87421 16.8896 7.40969 17.1269 7.80451 17.5492C8.19933 17.9716 8.42114 18.5443 8.42114 19.1416C8.42114 19.7389 8.19933 20.3116 7.80451 20.734C7.40969 21.1563 6.87421 21.3936 6.31585 21.3936C5.7575 21.3936 5.22201 21.1563 4.82719 20.734C4.43237 20.3116 4.21057 19.7389 4.21057 19.1416C4.21057 18.5443 4.43237 17.9716 4.82719 17.5492C5.22201 17.1269 5.7575 16.8896 6.31585 16.8896V16.8896ZM6.31585 18.0156C6.03667 18.0156 5.76893 18.1343 5.57152 18.3454C5.37411 18.5566 5.26321 18.843 5.26321 19.1416C5.26321 19.4402 5.37411 19.7266 5.57152 19.9378C5.76893 20.1489 6.03667 20.2676 6.31585 20.2676C6.59503 20.2676 6.86277 20.1489 7.06018 19.9378C7.25759 19.7266 7.36849 19.4402 7.36849 19.1416C7.36849 18.843 7.25759 18.5566 7.06018 18.3454C6.86277 18.1343 6.59503 18.0156 6.31585 18.0156ZM17.8949 3.37793H3.4453L6.12638 10.1338H14.737C14.9007 10.1341 15.0621 10.0932 15.2084 10.0146C15.3546 9.93602 15.4816 9.82179 15.5791 9.68115L18.737 5.17724H18.7381C18.8548 5.00987 18.9258 4.81107 18.9429 4.60306C18.9601 4.39505 18.9229 4.18603 18.8354 3.99935C18.748 3.81266 18.6137 3.65568 18.4476 3.54594C18.2815 3.43621 18.0901 3.37803 17.8949 3.37793V3.37793ZM14.737 11.2598H6.1748L5.36847 13.0163L5.26321 13.5117C5.26321 13.8103 5.37411 14.0967 5.57152 14.3079C5.76893 14.5191 6.03667 14.6377 6.31585 14.6377H17.8949V15.7637H6.31585C5.94929 15.7639 5.58903 15.6617 5.27072 15.4672C4.95241 15.2727 4.68709 14.9928 4.501 14.6549C4.31491 14.3171 4.21451 13.9332 4.20972 13.5411C4.20494 13.149 4.29594 12.7624 4.47373 12.4195L5.23163 10.7598L1.40844 1.12598H0V0H2.10528L2.99898 2.25195H17.8949C18.2927 2.25199 18.6823 2.37257 19.0186 2.59972C19.355 2.82686 19.6243 3.15128 19.7954 3.5354C19.9664 3.91952 20.0323 4.34762 19.9852 4.77012C19.9382 5.19261 19.7803 5.59221 19.5297 5.92264L16.4623 10.2982C16.2683 10.5952 16.0102 10.8378 15.7098 11.0052C15.4094 11.1726 15.0757 11.2599 14.737 11.2598V11.2598Z" fill="black" fill-opacity="0.5"/>
</svg>
