<?xml version="1.0" encoding="UTF-8"?>
<!-- Generator: Adobe Illustrator 19.0.0, SVG Export Plug-In . SVG Version: 6.00 Build 0)  -->
<svg enable-background="new 0 0 52.511 52.511" version="1.1" viewBox="0 0 52.511 52.511" xml:space="preserve" xmlns="http://www.w3.org/2000/svg" xmlns:cc="http://creativecommons.org/ns#" xmlns:dc="http://purl.org/dc/elements/1.1/" xmlns:rdf="http://www.w3.org/1999/02/22-rdf-syntax-ns#"><metadata><rdf:RDF><cc:Work rdf:about=""><dc:format>image/svg+xml</dc:format><dc:type rdf:resource="http://purl.org/dc/dcmitype/StillImage"/><dc:title/></cc:Work></rdf:RDF></metadata>
<g fill="#fff">
	<g fill="#fff">
		<path d="m31.256 0h-10.002c-10.476 0-18.999 8.521-18.999 18.995v9.01c0 7.8 4.793 14.81 12 17.665v5.841c0 0.396 0.233 0.754 0.595 0.914 0.13 0.058 0.268 0.086 0.405 0.086 0.243 0 0.484-0.089 0.671-0.259l5.799-5.252h9.531c10.476 0 18.999-8.521 18.999-18.995v-9.01c0-10.474-8.523-18.995-18.999-18.995zm16.999 28.005c0 9.371-7.625 16.995-16.999 16.995h-9.917c-0.248 0-0.487 0.092-0.671 0.259l-4.413 3.997v-4.279c0-0.424-0.267-0.802-0.667-0.942-6.778-2.397-11.333-8.839-11.333-16.03v-9.01c0-9.371 7.626-16.995 16.999-16.995h10.002c9.374 0 16.999 7.624 16.999 16.995v9.01z"/>
		<path d="m39.471 30.493-6.146-3.992c-0.672-0.437-1.472-0.585-2.255-0.423-0.784 0.165-1.458 0.628-1.895 1.303l-0.289 0.444c-2.66-0.879-5.593-2.002-7.349-7.085l0.727-0.632c1.248-1.085 1.379-2.983 0.294-4.233l-4.808-5.531c-0.362-0.417-0.994-0.46-1.411-0.099l-3.019 2.624c-2.648 2.302-1.411 5.707-1.004 6.826 0.018 0.05 0.04 0.098 0.066 0.145 0.105 0.188 2.612 4.662 6.661 8.786 4.065 4.141 11.404 7.965 11.629 8.076 0.838 0.544 1.781 0.805 2.714 0.805 1.638 0 3.244-0.803 4.202-2.275l2.178-3.354c0.3-0.465 0.168-1.084-0.295-1.385zm-3.561 3.649c-0.901 1.388-2.763 1.782-4.233 0.834-0.073-0.038-7.364-3.835-11.207-7.75-3.592-3.659-5.977-7.724-6.302-8.291-0.792-2.221-0.652-3.586 0.464-4.556l2.265-1.968 4.152 4.776c0.369 0.424 0.326 1.044-0.096 1.411l-1.227 1.066c-0.299 0.26-0.417 0.671-0.3 1.049 2.092 6.798 6.16 8.133 9.13 9.108l0.433 0.143c0.433 0.146 0.907-0.021 1.155-0.403l0.709-1.092c0.146-0.226 0.37-0.379 0.63-0.434 0.261-0.056 0.527-4e-3 0.753 0.143l5.308 3.447-1.634 2.517z"/>
		<path d="m28.538 16.247c-0.532-0.153-1.085 0.156-1.236 0.688-0.151 0.531 0.157 1.084 0.688 1.235 1.49 0.424 2.677 1.613 3.097 3.104 0.124 0.44 0.525 0.729 0.962 0.729 0.09 0 0.181-0.012 0.272-0.037 0.531-0.15 0.841-0.702 0.691-1.234-0.607-2.154-2.322-3.873-4.474-4.485z"/>
		<path d="m36.148 22.219c0.09 0 0.181-0.012 0.272-0.037 0.532-0.15 0.841-0.703 0.691-1.234-1.18-4.183-4.509-7.519-8.689-8.709-0.531-0.153-1.084 0.158-1.235 0.689s0.157 1.084 0.688 1.235c3.517 1 6.318 3.809 7.311 7.328 0.125 0.44 0.525 0.728 0.962 0.728z"/>
		<path d="m27.991 7.582c-0.532-0.153-1.085 0.156-1.236 0.689-0.151 0.531 0.157 1.084 0.688 1.235 5.959 1.695 10.706 6.453 12.388 12.416 0.124 0.44 0.525 0.729 0.962 0.729 0.09 0 0.181-0.012 0.272-0.037 0.531-0.15 0.841-0.703 0.691-1.234-1.869-6.627-7.143-11.913-13.765-13.798z"/>
	</g>
</g>















</svg>
