<?xml version="1.0" encoding="UTF-8"?>
<!-- Generator: Adobe Illustrator 18.0.0, SVG Export Plug-In . SVG Version: 6.00 Build 0)  -->
<svg enable-background="new 0 0 189.473 189.473" version="1.1" viewBox="0 0 189.47 189.47" xml:space="preserve" xmlns="http://www.w3.org/2000/svg" xmlns:cc="http://creativecommons.org/ns#" xmlns:dc="http://purl.org/dc/elements/1.1/" xmlns:rdf="http://www.w3.org/1999/02/22-rdf-syntax-ns#"><metadata><rdf:RDF><cc:Work rdf:about=""><dc:format>image/svg+xml</dc:format><dc:type rdf:resource="http://purl.org/dc/dcmitype/StillImage"/><dc:title/></cc:Work></rdf:RDF></metadata>
<g fill="#fff">
	<path d="m152.53 179.48c-1.48 0-2.95-0.438-4.211-1.293l-47.641-32.316-25.552 18.386c-2.004 1.441-4.587 1.804-6.914 0.972-2.324-0.834-4.089-2.759-4.719-5.146l-12.83-48.622-45.843-17.529c-2.886-1.104-4.8-3.865-4.821-6.955s1.855-5.877 4.727-7.02l174.31-69.36c0.791-0.336 1.628-0.53 2.472-0.582 0.302-0.018 0.605-0.018 0.906-1e-3 1.748 0.104 3.465 0.816 4.805 2.13 0.139 0.136 0.271 0.275 0.396 0.42 1.11 1.268 1.72 2.814 1.835 4.389 0.028 0.396 0.026 0.797-9e-3 1.198-0.024 0.286-0.065 0.571-0.123 0.854l-29.423 154.38c-0.473 2.48-2.161 4.556-4.493 5.523-0.925 0.384-1.902 0.573-2.874 0.573zm-47.669-48.897 42.437 28.785 22.894-120.12-82.687 79.566 17.156 11.638c0.069 0.043 0.135 0.089 0.2 0.135zm-35.327-6.401 5.682 21.53 12.242-8.809-16.03-10.874c-0.745-0.504-1.383-1.132-1.894-1.847zm-41.399-37.396 31.478 12.035c2.255 0.862 3.957 2.758 4.573 5.092l3.992 15.129c0.183-1.745 0.974-3.387 2.259-4.624l78.789-75.814-121.09 48.182z" fill="#fff"/>
</g>















</svg>
